<svg xmlns="http://www.w3.org/2000/svg" id="mainsvg" width="1337.83832051754" height="60.50000000000001" viewBox="-28 -10 1216.2166550159454 55"><defs><marker id="arrow" viewBox="0 0 10 10" refX="10" refY="5" markerWidth="5" markerHeight="5" orient="auto-start-reverse" fill="black"><path d="M 0 0 L 10 5 L 0 10 z"/></marker><filter id="shadowOLD" x="-50%" y="-50%" width="250%" height="250%"><feDropShadow flood-color="black" flood-opacity="0.3" dx="1" dy="1" stdDeviation="2"> </feDropShadow></filter><filter id="shadow-path" filterUnits="userSpaceOnUse" x="-28" y="-10" width="1216.2166550159454px" height="55px"><feDropShadow flood-color="black" flood-opacity="0.1" dx="1" dy="1" stdDeviation="1"> </feDropShadow></filter><filter id="shadow" filterUnits="userSpaceOnUse" x="-28" y="-10" width="1316.2166550159454px" height="155px"><feDropShadow flood-color="black" flood-opacity="0.1" dx="1" dy="1" stdDeviation="1"> </feDropShadow></filter></defs><rect x="-28" y="-10" width="1216.2166550159454" height="55" fill="#fff"/><g transform="translate(-18, 5)"><rect width="8" height="25" stroke="none" fill="white" stroke-width="0" transform="translate(0, 0)" rx="2"/><text fill="black" font-size="14" font-weight="normal" transform="translate(4, 4)" alignment-baseline="middle" font-family="Arial"><tspan x="0" dy="14" font-family="Arial" font-size="14" font-weight="normal"/></text></g><g transform="translate(0, 0)"><g transform="translate(0, 0)"><rect width="24.899999618530273" height="35" stroke="black" fill="white" stroke-width="2" transform="translate(0, 0)" rx="2"/><text fill="black" font-size="16" font-weight="normal" transform="translate(8, 8)" alignment-baseline="middle" font-family="Arial"><tspan x="0" dy="16" font-family="Arial" font-size="16" font-weight="normal">?</tspan></text></g><g transform="translate(24.899999618530273, 0)"><rect width="24.899999618530273" height="35" stroke="black" fill="white" stroke-width="2" transform="translate(0, 0)" rx="2"/><text fill="black" font-size="16" font-weight="normal" transform="translate(8, 8)" alignment-baseline="middle" font-family="Arial"><tspan x="0" dy="16" font-family="Arial" font-size="16" font-weight="normal">?</tspan></text></g><g transform="translate(49.79999923706055, 0)"><rect width="24.899999618530273" height="35" stroke="black" fill="white" stroke-width="2" transform="translate(0, 0)" rx="2"/><text fill="black" font-size="16" font-weight="normal" transform="translate(8, 8)" alignment-baseline="middle" font-family="Arial"><tspan x="0" dy="16" font-family="Arial" font-size="16" font-weight="normal">?</tspan></text></g><g transform="translate(74.69999885559082, 0)"><rect width="24.899999618530273" height="35" stroke="black" fill="white" stroke-width="2" transform="translate(0, 0)" rx="2"/><text fill="black" font-size="16" font-weight="normal" transform="translate(8, 8)" alignment-baseline="middle" font-family="Arial"><tspan x="0" dy="16" font-family="Arial" font-size="16" font-weight="normal">?</tspan></text></g><g transform="translate(99.5999984741211, 0)"><rect width="24.899999618530273" height="35" stroke="black" fill="white" stroke-width="2" transform="translate(0, 0)" rx="2"/><text fill="black" font-size="16" font-weight="normal" transform="translate(8, 8)" alignment-baseline="middle" font-family="Arial"><tspan x="0" dy="16" font-family="Arial" font-size="16" font-weight="normal">?</tspan></text></g><g transform="translate(124.49999809265137, 0)"><rect width="24.899999618530273" height="35" stroke="black" fill="white" stroke-width="2" transform="translate(0, 0)" rx="2"/><text fill="black" font-size="16" font-weight="normal" transform="translate(8, 8)" alignment-baseline="middle" font-family="Arial"><tspan x="0" dy="16" font-family="Arial" font-size="16" font-weight="normal">?</tspan></text></g><g transform="translate(149.39999771118164, 0)"><rect width="24.899999618530273" height="35" stroke="black" fill="white" stroke-width="2" transform="translate(0, 0)" rx="2"/><text fill="black" font-size="16" font-weight="normal" transform="translate(8, 8)" alignment-baseline="middle" font-family="Arial"><tspan x="0" dy="16" font-family="Arial" font-size="16" font-weight="normal">?</tspan></text></g><g transform="translate(174.2999973297119, 0)"><rect width="24.899999618530273" height="35" stroke="black" fill="white" stroke-width="2" transform="translate(0, 0)" rx="2"/><text fill="black" font-size="16" font-weight="normal" transform="translate(8, 8)" alignment-baseline="middle" font-family="Arial"><tspan x="0" dy="16" font-family="Arial" font-size="16" font-weight="normal">?</tspan></text></g><g transform="translate(199.1999969482422, 0)"><rect width="24.899999618530273" height="35" stroke="black" fill="white" stroke-width="2" transform="translate(0, 0)" rx="2"/><text fill="black" font-size="16" font-weight="normal" transform="translate(8, 8)" alignment-baseline="middle" font-family="Arial"><tspan x="0" dy="16" font-family="Arial" font-size="16" font-weight="normal">n</tspan></text></g><g transform="translate(224.09999656677246, 0)"><rect width="24.899999618530273" height="35" stroke="black" fill="white" stroke-width="2" transform="translate(0, 0)" rx="2"/><text fill="black" font-size="16" font-weight="normal" transform="translate(8, 8)" alignment-baseline="middle" font-family="Arial"><tspan x="0" dy="16" font-family="Arial" font-size="16" font-weight="normal">a</tspan></text></g><g transform="translate(248.99999618530273, 0)"><rect width="29.333333015441895" height="35" stroke="black" fill="white" stroke-width="2" transform="translate(0, 0)" rx="2"/><text fill="black" font-size="16" font-weight="normal" transform="translate(8, 8)" alignment-baseline="middle" font-family="Arial"><tspan x="0" dy="16" font-family="Arial" font-size="16" font-weight="normal">m</tspan></text></g><g transform="translate(278.33332920074463, 0)"><rect width="24.899999618530273" height="35" stroke="black" fill="white" stroke-width="2" transform="translate(0, 0)" rx="2"/><text fill="black" font-size="16" font-weight="normal" transform="translate(8, 8)" alignment-baseline="middle" font-family="Arial"><tspan x="0" dy="16" font-family="Arial" font-size="16" font-weight="normal">e</tspan></text></g><g transform="translate(303.2333288192749, 0)"><rect width="25.350000381469727" height="35" stroke="black" fill="white" stroke-width="2" transform="translate(0, 0)" rx="2"/><text fill="black" font-size="16" font-weight="normal" transform="translate(8, 8)" alignment-baseline="middle" font-family="Arial"><tspan x="0" dy="16" font-family="Arial" font-size="16" font-weight="normal">=</tspan></text></g><g transform="translate(328.58332920074463, 0)"><rect width="24.899999618530273" height="35" stroke="black" fill="white" stroke-width="2" transform="translate(0, 0)" rx="2"/><text fill="black" font-size="16" font-weight="normal" transform="translate(8, 8)" alignment-baseline="middle" font-family="Arial"><tspan x="0" dy="16" font-family="Arial" font-size="16" font-weight="normal">e</tspan></text></g><g transform="translate(353.4833288192749, 0)"><rect width="24" height="35" stroke="black" fill="white" stroke-width="2" transform="translate(0, 0)" rx="2"/><text fill="black" font-size="16" font-weight="normal" transform="translate(8, 8)" alignment-baseline="middle" font-family="Arial"><tspan x="0" dy="16" font-family="Arial" font-size="16" font-weight="normal">s</tspan></text></g><g transform="translate(377.4833288192749, 0)"><rect width="24" height="35" stroke="black" fill="white" stroke-width="2" transform="translate(0, 0)" rx="2"/><text fill="black" font-size="16" font-weight="normal" transform="translate(8, 8)" alignment-baseline="middle" font-family="Arial"><tspan x="0" dy="16" font-family="Arial" font-size="16" font-weight="normal">c</tspan></text></g><g transform="translate(401.4833288192749, 0)"><rect width="24.899999618530273" height="35" stroke="black" fill="white" stroke-width="2" transform="translate(0, 0)" rx="2"/><text fill="black" font-size="16" font-weight="normal" transform="translate(8, 8)" alignment-baseline="middle" font-family="Arial"><tspan x="0" dy="16" font-family="Arial" font-size="16" font-weight="normal">o</tspan></text></g><g transform="translate(426.3833284378052, 0)"><rect width="19.549999952316284" height="35" stroke="black" fill="white" stroke-width="2" transform="translate(0, 0)" rx="2"/><text fill="black" font-size="16" font-weight="normal" transform="translate(8, 8)" alignment-baseline="middle" font-family="Arial"><tspan x="0" dy="16" font-family="Arial" font-size="16" font-weight="normal">l</tspan></text></g><g transform="translate(445.93332839012146, 0)"><rect width="24.899999618530273" height="35" stroke="black" fill="white" stroke-width="2" transform="translate(0, 0)" rx="2"/><text fill="black" font-size="16" font-weight="normal" transform="translate(8, 8)" alignment-baseline="middle" font-family="Arial"><tspan x="0" dy="16" font-family="Arial" font-size="16" font-weight="normal">h</tspan></text></g><g transform="translate(470.83332800865173, 0)"><rect width="19.549999952316284" height="35" stroke="black" fill="white" stroke-width="2" transform="translate(0, 0)" rx="2"/><text fill="black" font-size="16" font-weight="normal" transform="translate(8, 8)" alignment-baseline="middle" font-family="Arial"><tspan x="0" dy="16" font-family="Arial" font-size="16" font-weight="normal">i</tspan></text></g><g transform="translate(490.383327960968, 0)"><rect width="24.899999618530273" height="35" stroke="black" fill="white" stroke-width="2" transform="translate(0, 0)" rx="2"/><text fill="black" font-size="16" font-weight="normal" transform="translate(8, 8)" alignment-baseline="middle" font-family="Arial"><tspan x="0" dy="16" font-family="Arial" font-size="16" font-weight="normal">d</tspan></text></g><g transform="translate(515.2833275794983, 0)"><rect width="24.899999618530273" height="35" stroke="black" fill="white" stroke-width="2" transform="translate(0, 0)" rx="2"/><text fill="black" font-size="16" font-weight="normal" transform="translate(8, 8)" alignment-baseline="middle" font-family="Arial"><tspan x="0" dy="16" font-family="Arial" font-size="16" font-weight="normal">o</tspan></text></g><g transform="translate(540.1833271980286, 0)"><rect width="26.666666984558105" height="35" stroke="black" fill="white" stroke-width="2" transform="translate(0, 0)" rx="2"/><text fill="black" font-size="16" font-weight="normal" transform="translate(8, 8)" alignment-baseline="middle" font-family="Arial"><tspan x="0" dy="16" font-family="Arial" font-size="16" font-weight="normal">&amp;</tspan></text></g><g transform="translate(566.8499941825867, 0)"><rect width="21.333333492279053" height="35" stroke="black" fill="white" stroke-width="2" transform="translate(0, 0)" rx="2"/><text fill="black" font-size="16" font-weight="normal" transform="translate(8, 8)" alignment-baseline="middle" font-family="Arial"><tspan x="0" dy="16" font-family="Arial" font-size="16" font-weight="normal">r</tspan></text></g><g transform="translate(588.1833276748657, 0)"><rect width="24.899999618530273" height="35" stroke="black" fill="white" stroke-width="2" transform="translate(0, 0)" rx="2"/><text fill="black" font-size="16" font-weight="normal" transform="translate(8, 8)" alignment-baseline="middle" font-family="Arial"><tspan x="0" dy="16" font-family="Arial" font-size="16" font-weight="normal">o</tspan></text></g><g transform="translate(613.083327293396, 0)"><rect width="19.549999952316284" height="35" stroke="black" fill="white" stroke-width="2" transform="translate(0, 0)" rx="2"/><text fill="black" font-size="16" font-weight="normal" transform="translate(8, 8)" alignment-baseline="middle" font-family="Arial"><tspan x="0" dy="16" font-family="Arial" font-size="16" font-weight="normal">l</tspan></text></g><g transform="translate(632.6333272457123, 0)"><rect width="24.899999618530273" height="35" stroke="black" fill="white" stroke-width="2" transform="translate(0, 0)" rx="2"/><text fill="black" font-size="16" font-weight="normal" transform="translate(8, 8)" alignment-baseline="middle" font-family="Arial"><tspan x="0" dy="16" font-family="Arial" font-size="16" font-weight="normal">e</tspan></text></g><g transform="translate(657.5333268642426, 0)"><rect width="25.350000381469727" height="35" stroke="black" fill="white" stroke-width="2" transform="translate(0, 0)" rx="2"/><text fill="black" font-size="16" font-weight="normal" transform="translate(8, 8)" alignment-baseline="middle" font-family="Arial"><tspan x="0" dy="16" font-family="Arial" font-size="16" font-weight="normal">=</tspan></text></g><g transform="translate(682.8833272457123, 0)"><rect width="24.899999618530273" height="35" stroke="black" fill="white" stroke-width="2" transform="translate(0, 0)" rx="2"/><text fill="black" font-size="16" font-weight="normal" transform="translate(8, 8)" alignment-baseline="middle" font-family="Arial"><tspan x="0" dy="16" font-family="Arial" font-size="16" font-weight="normal">u</tspan></text></g><g transform="translate(707.7833268642426, 0)"><rect width="24" height="35" stroke="black" fill="white" stroke-width="2" transform="translate(0, 0)" rx="2"/><text fill="black" font-size="16" font-weight="normal" transform="translate(8, 8)" alignment-baseline="middle" font-family="Arial"><tspan x="0" dy="16" font-family="Arial" font-size="16" font-weight="normal">s</tspan></text></g><g transform="translate(731.7833268642426, 0)"><rect width="24.899999618530273" height="35" stroke="black" fill="white" stroke-width="2" transform="translate(0, 0)" rx="2"/><text fill="black" font-size="16" font-weight="normal" transform="translate(8, 8)" alignment-baseline="middle" font-family="Arial"><tspan x="0" dy="16" font-family="Arial" font-size="16" font-weight="normal">e</tspan></text></g><g transform="translate(756.6833264827728, 0)"><rect width="21.333333492279053" height="35" stroke="black" fill="white" stroke-width="2" transform="translate(0, 0)" rx="2"/><text fill="black" font-size="16" font-weight="normal" transform="translate(8, 8)" alignment-baseline="middle" font-family="Arial"><tspan x="0" dy="16" font-family="Arial" font-size="16" font-weight="normal">r</tspan></text></g><g transform="translate(778.0166599750519, 0)"><rect width="42.70000076293945" height="35" stroke="black" fill="white" stroke-width="2" transform="translate(0, 0)" rx="2"/><text fill="black" font-size="16" font-weight="normal" transform="translate(8, 8)" alignment-baseline="middle" font-family="Arial"><tspan x="0" dy="16" font-family="Arial" font-size="16" font-weight="normal">128</tspan></text></g><g transform="translate(820.7166607379913, 0)"><rect width="24.899999618530273" height="35" stroke="black" fill="white" stroke-width="2" transform="translate(0, 0)" rx="2"/><text fill="black" font-size="16" font-weight="normal" transform="translate(8, 8)" alignment-baseline="middle" font-family="Arial"><tspan x="0" dy="16" font-family="Arial" font-size="16" font-weight="normal">0</tspan></text></g><g transform="translate(845.6166603565216, 0)"><rect width="24.899999618530273" height="35" stroke="black" fill="white" stroke-width="2" transform="translate(0, 0)" rx="2"/><text fill="black" font-size="16" font-weight="normal" transform="translate(8, 8)" alignment-baseline="middle" font-family="Arial"><tspan x="0" dy="16" font-family="Arial" font-size="16" font-weight="normal">0</tspan></text></g><g transform="translate(870.5166599750519, 0)"><rect width="24.899999618530273" height="35" stroke="black" fill="white" stroke-width="2" transform="translate(0, 0)" rx="2"/><text fill="black" font-size="16" font-weight="normal" transform="translate(8, 8)" alignment-baseline="middle" font-family="Arial"><tspan x="0" dy="16" font-family="Arial" font-size="16" font-weight="normal">..</tspan></text></g><g transform="translate(895.4166595935822, 0)"><rect width="24.899999618530273" height="35" stroke="black" fill="white" stroke-width="2" transform="translate(0, 0)" rx="2"/><text fill="black" font-size="16" font-weight="normal" transform="translate(8, 8)" alignment-baseline="middle" font-family="Arial"><tspan x="0" dy="16" font-family="Arial" font-size="16" font-weight="normal">0</tspan></text></g><g transform="translate(920.3166592121124, 0)"><rect width="24.899999618530273" height="35" stroke="black" fill="white" stroke-width="2" transform="translate(0, 0)" rx="2"/><text fill="black" font-size="16" font-weight="normal" transform="translate(8, 8)" alignment-baseline="middle" font-family="Arial"><tspan x="0" dy="16" font-family="Arial" font-size="16" font-weight="normal">0</tspan></text></g><g transform="translate(945.2166588306427, 0)"><rect width="24.899999618530273" height="35" stroke="black" fill="white" stroke-width="2" transform="translate(0, 0)" rx="2"/><text fill="black" font-size="16" font-weight="normal" transform="translate(8, 8)" alignment-baseline="middle" font-family="Arial"><tspan x="0" dy="16" font-family="Arial" font-size="16" font-weight="normal">0</tspan></text></g><g transform="translate(970.116658449173, 0)"><rect width="24.899999618530273" height="35" stroke="black" fill="white" stroke-width="2" transform="translate(0, 0)" rx="2"/><text fill="black" font-size="16" font-weight="normal" transform="translate(8, 8)" alignment-baseline="middle" font-family="Arial"><tspan x="0" dy="16" font-family="Arial" font-size="16" font-weight="normal">0</tspan></text></g><g transform="translate(995.0166580677032, 0)"><rect width="24.899999618530273" height="35" stroke="black" fill="white" stroke-width="2" transform="translate(0, 0)" rx="2"/><text fill="black" font-size="16" font-weight="normal" transform="translate(8, 8)" alignment-baseline="middle" font-family="Arial"><tspan x="0" dy="16" font-family="Arial" font-size="16" font-weight="normal">0</tspan></text></g><g transform="translate(1019.9166576862335, 0)"><rect width="24.899999618530273" height="35" stroke="black" fill="white" stroke-width="2" transform="translate(0, 0)" rx="2"/><text fill="black" font-size="16" font-weight="normal" transform="translate(8, 8)" alignment-baseline="middle" font-family="Arial"><tspan x="0" dy="16" font-family="Arial" font-size="16" font-weight="normal">0</tspan></text></g><g transform="translate(1044.8166573047638, 0)"><rect width="24.899999618530273" height="35" stroke="black" fill="white" stroke-width="2" transform="translate(0, 0)" rx="2"/><text fill="black" font-size="16" font-weight="normal" transform="translate(8, 8)" alignment-baseline="middle" font-family="Arial"><tspan x="0" dy="16" font-family="Arial" font-size="16" font-weight="normal">0</tspan></text></g><g transform="translate(1069.716656923294, 0)"><rect width="24.899999618530273" height="35" stroke="black" fill="white" stroke-width="2" transform="translate(0, 0)" rx="2"/><text fill="black" font-size="16" font-weight="normal" transform="translate(8, 8)" alignment-baseline="middle" font-family="Arial"><tspan x="0" dy="16" font-family="Arial" font-size="16" font-weight="normal">0</tspan></text></g><g transform="translate(1094.6166565418243, 0)"><rect width="24.899999618530273" height="35" stroke="black" fill="white" stroke-width="2" transform="translate(0, 0)" rx="2"/><text fill="black" font-size="16" font-weight="normal" transform="translate(8, 8)" alignment-baseline="middle" font-family="Arial"><tspan x="0" dy="16" font-family="Arial" font-size="16" font-weight="normal">0</tspan></text></g><g transform="translate(1119.5166561603546, 0)"><rect width="24.899999618530273" height="35" stroke="black" fill="white" stroke-width="2" transform="translate(0, 0)" rx="2"/><text fill="black" font-size="16" font-weight="normal" transform="translate(8, 8)" alignment-baseline="middle" font-family="Arial"><tspan x="0" dy="16" font-family="Arial" font-size="16" font-weight="normal">1</tspan></text></g><g transform="translate(1144.416655778885, 0)"><rect width="33.79999923706055" height="35" stroke="black" fill="white" stroke-width="2" transform="translate(0, 0)" rx="2"/><text fill="black" font-size="16" font-weight="normal" transform="translate(8, 8)" alignment-baseline="middle" font-family="Arial"><tspan x="0" dy="16" font-family="Arial" font-size="16" font-weight="normal">16</tspan></text></g></g></svg>